<svg width="20" height="20" viewBox="0 0 20 20" fill="none" xmlns="http://www.w3.org/2000/svg">
<path d="M10.835 5.85C10.835 5.40974 11.0101 4.98763 11.3213 4.67633C11.6327 4.36502 12.0548 4.19 12.495 4.19H14.155V2.53L12.495 2.53C11.6145 2.53 10.7703 2.88003 10.1477 3.50266C9.52504 4.12527 9.17502 4.96947 9.17502 5.85L9.17502 8.33999C9.17502 8.7984 8.80343 9.17 8.34502 9.17H6.68502L6.68502 10.83H8.34502C8.80343 10.83 9.17502 11.2016 9.17502 11.66V17.47H10.835V11.66C10.835 11.2016 11.2066 10.83 11.665 10.83H13.5074L13.9224 9.17H11.665C11.2066 9.17 10.835 8.7984 10.835 8.33999L10.835 5.85ZM12.495 7.50999L14.985 7.50999C15.2406 7.50999 15.4819 7.6279 15.6391 7.82935C15.7963 8.03075 15.8518 8.29313 15.7899 8.54102L14.9599 11.861C14.8675 12.2305 14.5359 12.49 14.155 12.49H12.495V18.3C12.495 18.7584 12.1234 19.13 11.665 19.13H8.34502C7.88663 19.13 7.51502 18.7584 7.51502 18.3L7.51502 12.49H5.85502C5.39663 12.49 5.02502 12.1184 5.02502 11.66L5.02502 8.33999L5.02907 8.25489C5.07168 7.83646 5.42535 7.50999 5.85502 7.50999L7.51502 7.50999V5.85C7.51502 4.52922 8.04007 3.26291 8.974 2.32898C9.90791 1.39504 11.1742 0.869995 12.495 0.869995L14.985 0.869995L15.0701 0.874045C15.4886 0.916649 15.815 1.27032 15.815 1.7L15.815 5.02C15.815 5.47839 15.4434 5.85 14.985 5.85L12.495 5.85L12.495 7.50999Z" fill="#FFC107"/>
</svg>
