<svg width="32" height="32" viewBox="0 0 32 32" fill="none" xmlns="http://www.w3.org/2000/svg">
<path d="M12.6332 21.5745C12.8848 20.6356 13.8498 20.0785 14.7887 20.3301C15.7276 20.5816 16.2848 21.5467 16.0332 22.4855L14.7011 27.4571C14.5595 27.9852 14.0167 28.2986 13.4886 28.1571L12.0011 27.7585C11.473 27.617 11.1596 27.0742 11.3011 26.546L12.6332 21.5745Z" fill="#29A847"/>
<path d="M19.0928 19.0235C19.7801 18.3362 20.8946 18.3362 21.5819 19.0235L25.3321 22.7737C25.7188 23.1604 25.7188 23.7873 25.3321 24.1738L24.2432 25.2627C23.8566 25.6494 23.2298 25.6494 22.8431 25.2627L19.0928 21.5125C18.4055 20.8252 18.4055 19.7109 19.0928 19.0235Z" fill="#29A847"/>
<path d="M9.81523 15.734C10.7541 15.4824 11.7192 16.0397 11.9707 16.9785C12.2223 17.9174 11.6652 18.8825 10.7263 19.1341L5.43425 20.5521C4.90612 20.6936 4.36325 20.3802 4.22174 19.8521L3.82317 18.3645C3.68165 17.8364 3.99506 17.2936 4.52319 17.1521L9.81523 15.734Z" fill="#29A847"/>
<path d="M20.5796 1.69428C21.1077 1.8358 21.4211 2.37865 21.2796 2.90678L17.666 16.3927C17.4145 17.3316 16.4494 17.8887 15.5105 17.6373C14.5716 17.3857 14.0145 16.4206 14.2659 15.4817L17.8794 1.99574C18.021 1.46761 18.5638 1.15419 19.092 1.2957L20.5796 1.69428Z" fill="#29A847"/>
<path d="M28.3225 13.3942C28.4639 13.9223 28.1505 14.4652 27.6224 14.6068L22.3984 16.0064C21.4596 16.258 20.4945 15.7008 20.243 14.762C19.9914 13.823 20.5485 12.858 21.4874 12.6064L26.7114 11.2067C27.2395 11.0652 27.7824 11.3786 27.9238 11.9067L28.3225 13.3942Z" fill="#29A847"/>
<path d="M12.9709 10.4127C13.6583 11.1 13.6583 12.2143 12.9709 12.9017C12.2836 13.5889 11.1693 13.5889 10.482 12.9017L4.28264 6.70227C3.89602 6.31566 3.89602 5.68882 4.28264 5.3022L5.37153 4.2133C5.75816 3.82669 6.38498 3.82669 6.77161 4.2133L12.9709 10.4127Z" fill="#29A847"/>
</svg>
