<svg width="20" height="20" viewBox="0 0 20 20" fill="none" xmlns="http://www.w3.org/2000/svg">
<g clip-path="url(#clip0_103_799)">
<path d="M17.47 5.85C17.47 4.01641 15.9835 2.53 14.15 2.53L5.85 2.53C4.01641 2.53 2.53 4.01641 2.53 5.85L2.53 14.15C2.53 15.9835 4.01641 17.47 5.85 17.47L14.15 17.47C15.9835 17.47 17.47 15.9835 17.47 14.15L17.47 5.85ZM19.13 14.15C19.13 16.9004 16.9004 19.13 14.15 19.13L5.85 19.13C3.09962 19.13 0.869995 16.9004 0.869995 14.15L0.869995 5.85C0.869995 3.09962 3.09962 0.869995 5.85 0.869995L14.15 0.869995C16.9004 0.869995 19.13 3.09962 19.13 5.85L19.13 14.15Z" fill="#FFC107"/>
<path d="M8.13142 6.27336C8.90613 5.87141 9.78809 5.72387 10.6514 5.85188L10.816 5.88025C11.6335 6.03528 12.3867 6.43293 12.9769 7.02311C13.6065 7.65272 14.0175 8.46783 14.1481 9.34854L14.1684 9.51072C14.2562 10.3218 14.1034 11.1423 13.7266 11.8686C13.3246 12.6433 12.6882 13.2715 11.9086 13.664C11.129 14.0563 10.2454 14.1932 9.38371 14.0546C8.52192 13.9159 7.72575 13.5087 7.10851 12.8915C6.49128 12.2742 6.08406 11.4781 5.94538 10.6163C5.80679 9.75458 5.94367 8.87104 6.33606 8.09141C6.72851 7.3118 7.35668 6.67536 8.13142 6.27336ZM10.4083 7.49405C9.89018 7.41722 9.36064 7.50572 8.89575 7.74693C8.43087 7.98815 8.05402 8.37014 7.81855 8.83793C7.58312 9.30571 7.50111 9.83583 7.5843 10.3528C7.6675 10.8699 7.91185 11.3474 8.28219 11.7178C8.65248 12.0881 9.13006 12.3325 9.64715 12.4157C10.1642 12.4989 10.6943 12.4169 11.1621 12.1814C11.6299 11.9459 12.0118 11.5691 12.253 11.1042C12.4641 10.6975 12.5581 10.2416 12.527 9.78711L12.5059 9.59173C12.4276 9.06335 12.1809 8.57448 11.8032 8.19678C11.4727 7.86631 11.0572 7.63615 10.6044 7.53133L10.4083 7.49405Z" fill="#FFC107"/>
<path d="M14.5981 4.58997L14.6832 4.59402C15.1017 4.63654 15.4281 4.99023 15.4281 5.41997C15.4281 5.84971 15.1017 6.20339 14.6832 6.24592L14.5981 6.24997H14.59C14.1316 6.24997 13.76 5.87836 13.76 5.41997C13.76 4.96157 14.1316 4.58997 14.59 4.58997H14.5981Z" fill="#FFC107"/>
</g>
<defs>
<clipPath id="clip0_103_799">
<rect width="20" height="20" fill="white"/>
</clipPath>
</defs>
</svg>
