<svg width="20" height="20" viewBox="0 0 20 20" fill="none" xmlns="http://www.w3.org/2000/svg">
<g clip-path="url(#clip0_103_808)">
<path d="M17.48 11.665C17.48 10.5643 17.0424 9.50906 16.2642 8.73076C15.4859 7.95252 14.4307 7.51498 13.33 7.51498C12.2293 7.51498 11.1741 7.95252 10.3958 8.73076C9.61756 9.50906 9.17999 10.5643 9.17999 11.665L9.17999 16.645H10.84L10.84 11.665C10.84 11.0045 11.1025 10.3714 11.5695 9.90447C12.0364 9.43751 12.6696 9.17498 13.33 9.17498C13.9904 9.17498 14.6235 9.43751 15.0905 9.90447C15.5575 10.3714 15.82 11.0045 15.82 11.665V16.645H17.48V11.665ZM19.14 17.475C19.14 17.9334 18.7684 18.305 18.31 18.305H14.99C14.5316 18.305 14.16 17.9334 14.16 17.475L14.16 11.665C14.16 11.4449 14.0725 11.2338 13.9168 11.0782C13.7612 10.9225 13.5501 10.835 13.33 10.835C13.1099 10.835 12.8988 10.9225 12.7432 11.0782C12.5875 11.2338 12.5 11.4449 12.5 11.665L12.5 17.475C12.5 17.9334 12.1284 18.305 11.67 18.305H8.34999C7.8916 18.305 7.51999 17.9334 7.51999 17.475L7.51999 11.665C7.51999 10.1241 8.13174 8.64594 9.22132 7.55631C10.3109 6.46673 11.7891 5.85498 13.33 5.85498C14.8709 5.85498 16.349 6.46673 17.4387 7.55631C18.5283 8.64594 19.14 10.1241 19.14 11.665L19.14 17.475Z" fill="#FFC107"/>
<path d="M4.99 6.68994L5.0751 6.69399C5.49353 6.7366 5.82 7.09027 5.82 7.51994L5.82 17.4799C5.82 17.9383 5.44839 18.3099 4.99 18.3099H1.67C1.2116 18.3099 0.839996 17.9383 0.839996 17.4799L0.839996 7.51994L0.844047 7.43483C0.886651 7.01641 1.24032 6.68994 1.67 6.68994L4.99 6.68994ZM2.5 16.6499H4.16L4.16 8.34994H2.5L2.5 16.6499Z" fill="#FFC107"/>
<path d="M4.16 3.32997C4.16 2.87157 3.78839 2.49997 3.33 2.49997C2.8716 2.49997 2.5 2.87157 2.5 3.32997C2.5 3.78836 2.8716 4.15997 3.33 4.15997C3.78839 4.15997 4.16 3.78836 4.16 3.32997ZM5.82 3.32997C5.82 4.70515 4.70518 5.81997 3.33 5.81997C1.95481 5.81997 0.839996 4.70515 0.839996 3.32997C0.839996 1.95478 1.95481 0.839966 3.33 0.839966C4.70518 0.839966 5.82 1.95478 5.82 3.32997Z" fill="#FFC107"/>
</g>
<defs>
<clipPath id="clip0_103_808">
<rect width="20" height="20" fill="white"/>
</clipPath>
</defs>
</svg>
