<svg width="32" height="32" viewBox="0 0 32 32" fill="none" xmlns="http://www.w3.org/2000/svg">
<path  d="M28.48 16.06C28.1256 16.0599 27.7739 16.1206 27.44 16.2394V16.06C27.44 10.6286 23.4009 7.9402 20.4512 5.9772C18.6208 4.7578 17.04 3.71 17.04 2.54C17.04 1.96562 16.5744 1.5 16 1.5C15.4256 1.5 14.96 1.96562 14.96 2.54C14.96 3.71 13.3792 4.7578 11.5488 5.9772C8.5991 7.9402 4.56 10.6286 4.56 16.06V16.2394C3.60523 15.9018 2.54601 16.0487 1.71906 16.6332C0.892112 17.2178 0.400313 18.1673 0.4 19.18L0.4 26.46C0.4 27.0344 0.865623 27.5 1.44 27.5L9.76 27.5C10.3344 27.5 10.8 27.0344 10.8 26.46V22.3C10.8 21.7256 11.2656 21.26 11.84 21.26C12.4144 21.26 12.88 21.7256 12.88 22.3V26.46C12.88 27.0344 13.3456 27.5 13.92 27.5H18.08C18.6544 27.5 19.12 27.0344 19.12 26.46L19.12 22.3C19.12 21.7256 19.5856 21.26 20.16 21.26C20.7344 21.26 21.2 21.7256 21.2 22.3L21.2 26.46C21.2 27.0344 21.6656 27.5 22.24 27.5H30.56C31.1344 27.5 31.6 27.0344 31.6 26.46L31.6 19.18C31.6 17.4569 30.2031 16.06 28.48 16.06ZM12.7019 7.7088C13.959 6.8716 15.1719 6.0604 16 5.1088C16.8242 6.0643 18.041 6.8755 19.2981 7.7088C21.8981 9.4404 24.8205 11.3865 25.2924 15.02L6.7024 15.02C7.1795 11.3865 10.098 9.4404 12.7019 7.7088ZM2.48 19.18C2.48 18.6056 2.94562 18.14 3.52 18.14C4.09438 18.14 4.56 18.6056 4.56 19.18L4.56 25.42H2.48L2.48 19.18ZM20.16 19.18C18.4369 19.18 17.04 20.5769 17.04 22.3L17.04 25.42H14.96V22.3C14.96 20.5769 13.5631 19.18 11.84 19.18C10.1169 19.18 8.72 20.5769 8.72 22.3V25.42L6.64 25.42L6.64 17.1L25.36 17.1L25.36 25.42H23.28L23.28 22.3C23.28 20.5769 21.8831 19.18 20.16 19.18ZM29.52 25.42H27.44L27.44 19.18C27.44 18.6056 27.9056 18.14 28.48 18.14C29.0544 18.14 29.52 18.6056 29.52 19.18L29.52 25.42Z" fill="#fff"/>
</svg>
