<svg width="96" height="16" viewBox="0 0 96 16" fill="none" xmlns="http://www.w3.org/2000/svg">
<path d="M7.49114 1.46688C7.67947 1.01407 8.32094 1.01408 8.50927 1.46688L10.0583 5.19128C10.1377 5.38217 10.3173 5.5126 10.5233 5.52912L14.5441 5.85146C15.033 5.89066 15.2312 6.50071 14.8587 6.81973L11.7953 9.44393C11.6383 9.57839 11.5697 9.78946 11.6177 9.99053L12.5537 13.9141C12.6675 14.3912 12.1485 14.7682 11.73 14.5126L8.2876 12.41C8.1112 12.3023 7.88927 12.3023 7.71287 12.41L4.27047 14.5126C3.85196 14.7682 3.33301 14.3912 3.4468 13.9141L4.38272 9.99053C4.4307 9.78946 4.36212 9.57839 4.20511 9.44393L1.14168 6.81973C0.769236 6.50071 0.967456 5.89066 1.4563 5.85146L5.4771 5.52912C5.68318 5.5126 5.8627 5.38217 5.9421 5.19128L7.49114 1.46688Z" fill="#FFC107"/>
<path d="M27.4911 1.46688C27.6795 1.01407 28.3209 1.01408 28.5093 1.46688L30.0583 5.19128C30.1377 5.38217 30.3173 5.5126 30.5233 5.52912L34.5441 5.85146C35.033 5.89066 35.2312 6.50071 34.8587 6.81973L31.7953 9.44393C31.6383 9.57839 31.5697 9.78946 31.6177 9.99053L32.5537 13.9141C32.6675 14.3912 32.1485 14.7682 31.73 14.5126L28.2876 12.41C28.1112 12.3023 27.8893 12.3023 27.7129 12.41L24.2705 14.5126C23.852 14.7682 23.333 14.3912 23.4468 13.9141L24.3827 9.99053C24.4307 9.78946 24.3621 9.57839 24.2051 9.44393L21.1417 6.81973C20.7692 6.50071 20.9675 5.89066 21.4563 5.85146L25.4771 5.52912C25.6832 5.5126 25.8627 5.38217 25.9421 5.19128L27.4911 1.46688Z" fill="#FFC107"/>
<path d="M47.4911 1.46688C47.6795 1.01407 48.3209 1.01408 48.5093 1.46688L50.0583 5.19128C50.1377 5.38217 50.3173 5.5126 50.5233 5.52912L54.5441 5.85146C55.033 5.89066 55.2312 6.50071 54.8587 6.81973L51.7953 9.44393C51.6383 9.57839 51.5697 9.78946 51.6177 9.99053L52.5537 13.9141C52.6675 14.3912 52.1485 14.7682 51.73 14.5126L48.2876 12.41C48.1112 12.3023 47.8893 12.3023 47.7129 12.41L44.2705 14.5126C43.852 14.7682 43.333 14.3912 43.4468 13.9141L44.3827 9.99053C44.4307 9.78946 44.3621 9.57839 44.2051 9.44393L41.1417 6.81973C40.7692 6.50071 40.9675 5.89066 41.4563 5.85146L45.4771 5.52912C45.6832 5.5126 45.8627 5.38217 45.9421 5.19128L47.4911 1.46688Z" fill="#FFC107"/>
<path d="M67.4911 1.46688C67.6795 1.01407 68.3209 1.01408 68.5093 1.46688L70.0583 5.19128C70.1377 5.38217 70.3173 5.5126 70.5233 5.52912L74.5441 5.85146C75.033 5.89066 75.2312 6.50071 74.8587 6.81973L71.7953 9.44393C71.6383 9.57839 71.5697 9.78946 71.6177 9.99053L72.5537 13.9141C72.6675 14.3912 72.1485 14.7682 71.73 14.5126L68.2876 12.41C68.1112 12.3023 67.8893 12.3023 67.7129 12.41L64.2705 14.5126C63.852 14.7682 63.333 14.3912 63.4468 13.9141L64.3827 9.99053C64.4307 9.78946 64.3621 9.57839 64.2051 9.44393L61.1417 6.81973C60.7692 6.50071 60.9675 5.89066 61.4563 5.85146L65.4771 5.52912C65.6832 5.5126 65.8627 5.38217 65.9421 5.19128L67.4911 1.46688Z" fill="#FFC107"/>
<path d="M87.4911 1.46688C87.6795 1.01407 88.3209 1.01408 88.5093 1.46688L90.0583 5.19128C90.1377 5.38217 90.3173 5.5126 90.5233 5.52912L94.5441 5.85146C95.033 5.89066 95.2312 6.50071 94.8587 6.81973L91.7953 9.44393C91.6383 9.57839 91.5697 9.78946 91.6177 9.99053L92.5537 13.9141C92.6675 14.3912 92.1485 14.7682 91.73 14.5126L88.2876 12.41C88.1112 12.3023 87.8893 12.3023 87.7129 12.41L84.2705 14.5126C83.852 14.7682 83.333 14.3912 83.4468 13.9141L84.3827 9.99053C84.4307 9.78946 84.3621 9.57839 84.2051 9.44393L81.1417 6.81973C80.7692 6.50071 80.9675 5.89066 81.4563 5.85146L85.4771 5.52912C85.6832 5.5126 85.8627 5.38217 85.9421 5.19128L87.4911 1.46688Z" fill="#DEE1E6"/>
</svg>
