<svg width="20" height="20" viewBox="0 0 20 20" fill="none" xmlns="http://www.w3.org/2000/svg">
<path d="M11.3074 3.02286C12.7326 2.28033 14.5919 2.32661 16.0685 3.49055C16.1407 3.47312 16.2243 3.45096 16.3182 3.41922C16.549 3.34121 16.7972 3.23284 17.0323 3.1177C17.2654 3.00355 17.4741 2.88842 17.6248 2.80158C17.6998 2.75837 17.7597 2.72221 17.7999 2.69783C17.82 2.68566 17.8356 2.67625 17.8453 2.67028C17.8499 2.66742 17.853 2.66501 17.855 2.66379H17.8566C18.1532 2.47646 18.5361 2.49525 18.8123 2.71161C19.0536 2.90089 19.1679 3.20517 19.1186 3.50109L19.0871 3.62753V3.62915L19.0862 3.63078C19.0857 3.6324 19.0847 3.6348 19.0838 3.63726C19.0821 3.64214 19.0801 3.6487 19.0773 3.65671C19.0716 3.67297 19.064 3.69567 19.0538 3.72399C19.0333 3.78082 19.0028 3.86138 18.9638 3.95986C18.8861 4.1563 18.7708 4.42857 18.6194 4.73717C18.3696 5.24585 18.0013 5.88885 17.5154 6.45715C18.5859 15.1094 9.18517 21.3674 1.60678 16.7389L1.24123 16.5071C0.930193 16.301 0.795595 15.9119 0.911335 15.5571C1.02716 15.2027 1.36482 14.969 1.73729 14.9857C2.86676 15.0371 3.9845 14.8025 4.94704 14.3211C1.32731 12.3239 -0.26515 7.59945 1.80051 3.79855L1.85481 3.71183C1.99235 3.51957 2.20731 3.39342 2.4457 3.36897C2.7181 3.34117 2.98697 3.4501 3.16385 3.65915C4.63189 5.39393 6.81673 6.48422 9.08001 6.66222C9.08914 5.00815 10.02 3.69367 11.3074 3.02286ZM15.2434 4.96737C14.2723 4.06122 13.0181 4.00434 12.075 4.49563C11.1498 4.97765 10.5213 5.9864 10.8114 7.34064C10.8629 7.58151 10.8053 7.83334 10.6533 8.02718C10.5012 8.22104 10.2706 8.33767 10.0243 8.34491C7.38862 8.42238 4.75864 7.43785 2.80721 5.67092C1.84451 8.80867 3.6459 12.3779 6.91829 13.3598C7.20757 13.4465 7.42731 13.6839 7.49135 13.979C7.54735 14.2373 7.47659 14.5045 7.30574 14.7004L7.22631 14.7799C6.45339 15.4561 5.5385 15.9516 4.55879 16.2631C10.5436 18.0926 16.8912 13.0097 15.8205 6.31774C15.7786 6.0551 15.8652 5.78852 16.0532 5.6004C16.2041 5.44952 16.3444 5.2782 16.4762 5.09867C16.2613 5.15161 16.0343 5.19108 15.81 5.19108C15.5997 5.19108 15.3971 5.11081 15.2434 4.96737Z" fill="#FFC107"/>
</svg>
